<svg xmlns="http://www.w3.org/2000/svg" width="128" height="128" viewBox="0 0 128 128">
<g>
<path d="M 52.87 124.74 C48.35,122.40 45.20,119.78 41.75,115.49 C37.03,109.62 36.81,109.49 30.82,108.79 C27.45,108.41 22.41,106.99 19.60,105.64 C16.14,103.98 13.47,103.36 11.31,103.70 C7.14,104.37 3.00,100.53 3.00,96.00 C3.00,92.20 6.89,88.00 10.40,88.00 C14.28,88.00 18.33,92.07 18.33,95.97 C18.33,98.86 18.83,99.48 22.42,101.05 C24.66,102.04 28.26,103.17 30.40,103.56 C33.93,104.21 34.25,104.10 33.69,102.39 C33.36,101.35 31.95,96.77 30.56,92.20 C28.71,86.12 27.26,83.25 25.13,81.46 C23.53,80.11 20.48,76.73 18.36,73.94 L 14.50 68.87 L 12.78 72.68 C11.83,74.78 11.04,77.70 11.03,79.17 C11.01,80.64 10.73,82.55 10.39,83.42 C9.62,85.43 6.40,85.48 5.63,83.49 C4.78,81.26 6.65,72.61 8.96,68.08 C10.96,64.15 10.97,64.08 9.05,59.62 C0.18,38.93 9.31,22.02 30.91,19.14 C36.35,18.42 37.62,17.85 39.35,15.39 C42.73,10.57 49.37,4.53 53.55,2.48 C56.71,0.92 59.79,0.51 68.95,0.42 C79.64,0.32 80.56,0.47 82.70,2.61 C87.31,7.21 83.87,16.00 77.47,16.00 C74.33,16.00 69.00,11.05 69.00,8.14 C69.00,5.33 65.80,4.61 59.78,6.05 C55.77,7.01 53.46,8.46 49.08,12.75 L 43.50 18.22 L 52.19 20.01 C56.97,21.00 61.36,22.10 61.94,22.47 C62.53,22.83 66.87,22.16 71.58,20.98 C86.73,17.19 102.68,18.36 111.72,23.95 C116.27,26.76 120.68,33.26 121.90,38.99 C123.12,44.65 121.99,52.53 118.95,59.62 C117.06,64.03 117.06,64.19 118.89,67.81 C121.40,72.75 123.30,82.34 122.50,86.00 C122.07,87.96 122.38,89.70 123.43,91.20 C126.96,96.25 123.36,104.00 117.47,104.00 C114.37,104.00 109.00,99.06 109.00,96.21 C109.00,93.74 112.46,89.31 115.03,88.49 C116.69,87.96 117.00,86.97 116.97,82.18 C116.96,79.00 116.19,74.82 115.22,72.68 L 113.50 68.87 L 109.64 73.94 C107.52,76.73 104.47,80.11 102.87,81.46 C100.74,83.25 99.29,86.12 97.44,92.20 C96.05,96.77 94.66,101.29 94.34,102.25 C93.64,104.38 94.83,104.45 101.73,102.66 C107.38,101.19 109.39,101.74 108.84,104.59 C108.41,106.82 102.47,108.81 95.95,108.92 C91.60,109.00 91.18,109.27 86.45,115.22 C82.81,119.79 79.82,122.31 75.16,124.72 C66.63,129.14 61.38,129.14 52.87,124.74 ZM 73.02 119.99 C75.01,118.97 78.36,116.24 80.47,113.91 L 84.30 109.67 L 73.90 107.34 C65.70,105.50 62.85,105.23 60.35,106.05 C58.62,106.62 54.15,107.65 50.42,108.34 L 43.64 109.59 L 47.49 113.86 C55.43,122.65 63.85,124.67 73.02,119.99 ZM 53.97 101.96 C54.81,101.46 55.05,101.05 54.50,101.03 C53.95,101.01 49.71,98.75 45.09,95.99 C40.46,93.24 36.46,91.20 36.20,91.46 C35.94,91.72 36.77,94.70 38.03,98.08 L 40.33 104.22 L 46.39 103.54 C49.72,103.16 53.13,102.45 53.97,101.96 ZM 90.01 97.97 C91.25,94.65 92.01,91.68 91.69,91.36 C91.37,91.04 89.85,91.68 88.31,92.77 C86.76,93.86 82.61,96.35 79.09,98.30 L 72.68 101.85 L 76.59 102.49 C78.74,102.84 81.18,103.28 82.00,103.45 C87.10,104.53 87.72,104.11 90.01,97.97 ZM 13.00 96.00 C13.00,93.64 10.46,92.74 8.95,94.56 C8.02,95.68 8.02,96.32 8.95,97.44 C10.46,99.26 13.00,98.36 13.00,96.00 ZM 74.02 94.75 C81.65,90.93 82.53,90.19 82.80,87.43 C83.07,84.62 82.49,83.95 75.80,79.50 C65.70,72.79 62.93,72.77 52.70,79.32 C45.46,83.96 44.92,84.54 45.20,87.41 C45.47,90.20 46.33,90.92 53.98,94.75 C58.64,97.09 63.15,99.00 64.00,99.00 C64.85,99.00 69.36,97.09 74.02,94.75 ZM 119.09 94.61 C117.54,92.74 115.00,93.62 115.00,96.02 C115.00,98.37 117.11,99.13 118.91,97.43 C120.05,96.37 120.08,95.80 119.09,94.61 ZM 40.33 83.25 C40.76,81.22 42.73,79.33 47.89,76.01 L 54.87 71.52 L 52.93 68.39 C51.49,66.05 51.00,63.44 51.00,58.01 C51.00,50.89 51.07,50.70 55.01,46.76 C58.90,42.87 59.17,42.77 64.57,43.21 C69.15,43.59 70.70,44.24 73.30,46.84 C76.18,49.72 76.49,50.66 76.84,57.46 C77.15,63.65 76.87,65.48 75.17,68.22 L 73.13 71.52 L 80.11 76.01 C85.27,79.33 87.24,81.22 87.67,83.25 C88.40,86.73 88.96,86.70 92.55,82.95 L 95.47 79.90 L 95.48 66.20 C95.51,46.34 95.54,46.41 85.97,40.10 C81.56,37.19 74.85,33.44 71.07,31.75 L 64.18 28.69 L 58.65 30.94 C51.59,33.80 38.25,42.01 35.00,45.49 C32.55,48.11 32.50,48.48 32.50,64.01 L 32.50 79.87 L 35.44 82.93 C39.04,86.70 39.60,86.73 40.33,83.25 ZM 26.96 63.75 L 26.92 52.50 L 22.46 57.35 C20.01,60.01 18.00,62.78 18.00,63.51 C18.00,64.79 25.57,75.00 26.52,75.00 C26.79,75.00 26.98,69.94 26.96,63.75 ZM 105.98 69.91 C108.19,67.11 110.00,64.23 110.00,63.51 C110.00,62.78 107.99,60.01 105.54,57.35 L 101.08 52.50 L 101.04 63.75 C101.02,69.94 101.21,75.00 101.48,75.00 C101.74,75.00 103.76,72.71 105.98,69.91 ZM 69.55 66.55 C71.57,64.52 72.00,63.10 72.00,58.50 C72.00,53.90 71.57,52.48 69.55,50.45 C66.30,47.21 61.70,47.21 58.45,50.45 C56.43,52.48 56.00,53.90 56.00,58.50 C56.00,63.10 56.43,64.52 58.45,66.55 C60.00,68.09 62.05,69.00 64.00,69.00 C65.95,69.00 68.00,68.09 69.55,66.55 ZM 30.77 35.09 C32.04,30.92 33.34,26.71 33.66,25.75 C34.38,23.56 32.97,23.52 26.12,25.56 C19.80,27.43 13.56,32.78 11.93,37.71 C10.58,41.82 11.18,51.17 13.06,55.26 L 14.33 58.02 L 21.39 50.35 C27.58,43.63 28.75,41.74 30.77,35.09 ZM 116.73 47.00 C117.02,43.79 116.73,39.72 116.07,37.71 C114.44,32.78 108.20,27.43 101.88,25.56 C94.84,23.47 92.61,23.52 93.35,25.75 C98.52,41.31 98.95,42.11 106.23,49.98 L 113.50 57.86 L 114.86 55.28 C115.60,53.87 116.45,50.14 116.73,47.00 ZM 45.00 32.00 C49.58,29.25 53.81,26.99 54.41,26.97 C57.55,26.88 51.34,24.90 46.26,24.37 L 40.37 23.75 L 38.19 29.47 C36.10,34.91 35.59,37.00 36.34,37.00 C36.53,37.00 40.42,34.75 45.00,32.00 ZM 89.88 31.75 C88.73,28.86 87.54,25.88 87.24,25.13 C86.83,24.10 85.40,23.91 81.43,24.38 C72.33,25.45 72.28,25.85 80.72,30.65 C84.98,33.09 88.91,35.51 89.44,36.04 C91.67,38.27 91.84,36.66 89.88,31.75 ZM 79.09 6.61 C77.54,4.74 75.00,5.62 75.00,8.02 C75.00,10.37 77.11,11.13 78.91,9.43 C80.05,8.37 80.08,7.80 79.09,6.61 ZM 29.00 117.50 C29.00,115.39 29.47,115.00 32.00,115.00 C34.53,115.00 35.00,115.39 35.00,117.50 C35.00,119.61 34.53,120.00 32.00,120.00 C29.47,120.00 29.00,119.61 29.00,117.50 ZM 93.00 117.50 C93.00,115.39 93.47,115.00 96.00,115.00 C98.53,115.00 99.00,115.39 99.00,117.50 C99.00,119.61 98.53,120.00 96.00,120.00 C93.47,120.00 93.00,119.61 93.00,117.50 ZM 0.00 64.00 C0.00,61.47 0.39,61.00 2.50,61.00 C4.61,61.00 5.00,61.47 5.00,64.00 C5.00,66.53 4.61,67.00 2.50,67.00 C0.39,67.00 0.00,66.53 0.00,64.00 ZM 123.00 64.00 C123.00,61.47 123.39,61.00 125.50,61.00 C127.61,61.00 128.00,61.47 128.00,64.00 C128.00,66.53 127.61,67.00 125.50,67.00 C123.39,67.00 123.00,66.53 123.00,64.00 ZM 29.00 10.50 C29.00,8.39 29.47,8.00 32.00,8.00 C34.53,8.00 35.00,8.39 35.00,10.50 C35.00,12.61 34.53,13.00 32.00,13.00 C29.47,13.00 29.00,12.61 29.00,10.50 ZM 93.00 10.50 C93.00,8.39 93.47,8.00 96.00,8.00 C98.53,8.00 99.00,8.39 99.00,10.50 C99.00,12.61 98.53,13.00 96.00,13.00 C93.47,13.00 93.00,12.61 93.00,10.50 Z" fill="rgba(254,254,254,1)"/>
</g>
</svg>